<svg width="36" height="36" viewBox="0 0 36 36" fill="none" xmlns="http://www.w3.org/2000/svg">
<rect width="36" height="36" fill="white"/>
<path d="M7.37949 11.0402L11.0392 7.37918C11.2916 7.12682 11.6228 7 11.9541 7C12.2854 7 12.6167 7.12682 12.8691 7.37918L29 23.5104V29H23.5091L7.37949 12.8701C6.8735 12.3641 6.8735 11.5449 7.37949 11.0402ZM24.0449 27.7059H27.7059V24.0461L15.6151 11.9539L11.9541 15.6149L24.0449 27.7059ZM11.0392 14.7L14.7002 11.0389L11.9554 8.29412C11.9554 8.29412 11.9554 8.29412 11.9541 8.29412L8.29442 11.9552L11.0392 14.7Z" fill="#F7921E"/>
<line x1="29" y1="29.5" x2="15.1053" y2="29.5" stroke="#F7921E"/>
</svg>
