<svg width="36" height="36" viewBox="0 0 36 36" fill="none" xmlns="http://www.w3.org/2000/svg">
<rect width="36" height="36" fill="white"/>
<path fill-rule="evenodd" clip-rule="evenodd" d="M10 14.055C10 10.1584 13.4641 7 17.7388 7C22.0117 7 25.4777 10.1584 25.4777 14.055C25.4777 16.4893 23.8824 19.6215 22.1404 22.316C22.2112 22.4473 22.2531 22.6104 22.2531 22.7871V29.0741C22.2531 29.5079 22.0003 29.86 21.6888 29.86H13.7888C13.4773 29.86 13.2245 29.5079 13.2245 29.0741V22.7871C13.2245 22.6104 13.2664 22.4472 13.3372 22.3159C11.5952 19.6214 10 16.4893 10 14.055ZM24.5094 14.055C24.5099 16.3463 22.9152 19.4029 21.2257 22.0012H18.4C18.4 21.9988 18.4 21.9964 18.4 21.994V16.8347C18.4 16.5586 18.1762 16.3347 17.9 16.3347C17.6239 16.3347 17.4 16.5586 17.4 16.8347V21.994C17.4 21.9964 17.4001 21.9988 17.4001 22.0012H14.2533C12.561 19.4029 10.9664 16.3463 10.9664 14.055C10.9664 10.6383 14.0039 7.85849 17.7379 7.85849C21.4719 7.85849 24.5094 10.6383 24.5094 14.055ZM21.2374 29.0741H14.2402V27.5024H21.2374V29.0741ZM14.2402 22.7871H21.2374V26.7165H14.2402V22.7871ZM20.1815 12.7994C20.4277 12.6743 20.5258 12.3733 20.4007 12.1271C20.2755 11.8809 19.9745 11.7828 19.7284 11.908L16.2501 13.6761C16.004 13.8012 15.9059 14.1022 16.031 14.3483C16.1561 14.5945 16.4571 14.6926 16.7033 14.5675L20.1815 12.7994ZM19.6853 15.0433C19.9315 14.9181 20.0296 14.6171 19.9045 14.371C19.7793 14.1248 19.4784 14.0267 19.2322 14.1518L15.7539 15.9199C15.5078 16.045 15.4097 16.346 15.5348 16.5922C15.6599 16.8384 15.9609 16.9365 16.2071 16.8114L19.6853 15.0433Z" fill="#F7921E"/>
</svg>
